<mxfile host="app.diagrams.net" modified="2023-03-17T11:43:00.410Z" agent="5.0 (Macintosh; Intel Mac OS X 10_15_7) AppleWebKit/537.36 (KHTML, like Gecko) Chrome/111.0.0.0 Safari/537.36" etag="u0lV98eqnOfLypZrNxGe" version="21.0.6" type="github">
  <diagram name="第 1 页" id="mnLebOI9BBhnXuiOV1Yw">
    <mxGraphModel dx="1818" dy="1002" grid="0" gridSize="10" guides="1" tooltips="1" connect="1" arrows="1" fold="1" page="1" pageScale="1" pageWidth="827" pageHeight="1169" math="0" shadow="0">
      <root>
        <mxCell id="0" />
        <mxCell id="1" parent="0" />
        <mxCell id="6e3ZawmdIFsGpvc9r78N-12" value="" style="edgeStyle=orthogonalEdgeStyle;rounded=0;orthogonalLoop=1;jettySize=auto;html=1;" edge="1" parent="1" source="6e3ZawmdIFsGpvc9r78N-1" target="6e3ZawmdIFsGpvc9r78N-2">
          <mxGeometry relative="1" as="geometry" />
        </mxCell>
        <mxCell id="6e3ZawmdIFsGpvc9r78N-1" value="&lt;meta charset=&quot;utf-8&quot;&gt;&lt;span style=&quot;color: rgb(0, 0, 0); font-family: Helvetica; font-size: 12px; font-style: normal; font-variant-ligatures: normal; font-variant-caps: normal; font-weight: 400; letter-spacing: normal; orphans: 2; text-align: center; text-indent: 0px; text-transform: none; widows: 2; word-spacing: 0px; -webkit-text-stroke-width: 0px; background-color: rgb(251, 251, 251); text-decoration-thickness: initial; text-decoration-style: initial; text-decoration-color: initial; float: none; display: inline !important;&quot;&gt;开始&lt;/span&gt;" style="ellipse;whiteSpace=wrap;html=1;" vertex="1" parent="1">
          <mxGeometry x="252" y="77" width="120" height="57" as="geometry" />
        </mxCell>
        <mxCell id="6e3ZawmdIFsGpvc9r78N-13" value="" style="edgeStyle=orthogonalEdgeStyle;rounded=0;orthogonalLoop=1;jettySize=auto;html=1;" edge="1" parent="1" source="6e3ZawmdIFsGpvc9r78N-2" target="6e3ZawmdIFsGpvc9r78N-3">
          <mxGeometry relative="1" as="geometry" />
        </mxCell>
        <mxCell id="6e3ZawmdIFsGpvc9r78N-2" value="登陆" style="rounded=1;whiteSpace=wrap;html=1;" vertex="1" parent="1">
          <mxGeometry x="252" y="191" width="120" height="60" as="geometry" />
        </mxCell>
        <mxCell id="6e3ZawmdIFsGpvc9r78N-15" value="" style="edgeStyle=orthogonalEdgeStyle;rounded=0;orthogonalLoop=1;jettySize=auto;html=1;" edge="1" parent="1" source="6e3ZawmdIFsGpvc9r78N-3" target="6e3ZawmdIFsGpvc9r78N-4">
          <mxGeometry relative="1" as="geometry" />
        </mxCell>
        <mxCell id="6e3ZawmdIFsGpvc9r78N-27" value="密码正确" style="edgeLabel;html=1;align=center;verticalAlign=middle;resizable=0;points=[];" vertex="1" connectable="0" parent="6e3ZawmdIFsGpvc9r78N-15">
          <mxGeometry x="-0.2869" y="1" relative="1" as="geometry">
            <mxPoint as="offset" />
          </mxGeometry>
        </mxCell>
        <mxCell id="6e3ZawmdIFsGpvc9r78N-16" value="" style="edgeStyle=orthogonalEdgeStyle;rounded=0;orthogonalLoop=1;jettySize=auto;html=1;" edge="1" parent="1" source="6e3ZawmdIFsGpvc9r78N-3" target="6e3ZawmdIFsGpvc9r78N-14">
          <mxGeometry relative="1" as="geometry" />
        </mxCell>
        <mxCell id="6e3ZawmdIFsGpvc9r78N-28" value="密码错误" style="edgeLabel;html=1;align=center;verticalAlign=middle;resizable=0;points=[];" vertex="1" connectable="0" parent="6e3ZawmdIFsGpvc9r78N-16">
          <mxGeometry x="-0.2705" y="2" relative="1" as="geometry">
            <mxPoint as="offset" />
          </mxGeometry>
        </mxCell>
        <mxCell id="6e3ZawmdIFsGpvc9r78N-3" value="判断账号密码" style="rhombus;whiteSpace=wrap;html=1;" vertex="1" parent="1">
          <mxGeometry x="251" y="291" width="122" height="80" as="geometry" />
        </mxCell>
        <mxCell id="6e3ZawmdIFsGpvc9r78N-18" value="" style="edgeStyle=orthogonalEdgeStyle;rounded=0;orthogonalLoop=1;jettySize=auto;html=1;" edge="1" parent="1" source="6e3ZawmdIFsGpvc9r78N-4" target="6e3ZawmdIFsGpvc9r78N-6">
          <mxGeometry relative="1" as="geometry" />
        </mxCell>
        <mxCell id="6e3ZawmdIFsGpvc9r78N-4" value="登陆成功" style="rounded=1;whiteSpace=wrap;html=1;" vertex="1" parent="1">
          <mxGeometry x="244.5" y="422" width="135" height="45" as="geometry" />
        </mxCell>
        <mxCell id="6e3ZawmdIFsGpvc9r78N-19" value="" style="edgeStyle=orthogonalEdgeStyle;rounded=0;orthogonalLoop=1;jettySize=auto;html=1;" edge="1" parent="1" source="6e3ZawmdIFsGpvc9r78N-5" target="6e3ZawmdIFsGpvc9r78N-7">
          <mxGeometry relative="1" as="geometry" />
        </mxCell>
        <mxCell id="6e3ZawmdIFsGpvc9r78N-5" value="添加课程" style="rounded=1;whiteSpace=wrap;html=1;" vertex="1" parent="1">
          <mxGeometry x="244.5" y="504" width="135" height="45" as="geometry" />
        </mxCell>
        <mxCell id="6e3ZawmdIFsGpvc9r78N-6" value="添加章节" style="rounded=1;whiteSpace=wrap;html=1;" vertex="1" parent="1">
          <mxGeometry x="244.5" y="580" width="135" height="45" as="geometry" />
        </mxCell>
        <mxCell id="6e3ZawmdIFsGpvc9r78N-20" value="" style="edgeStyle=orthogonalEdgeStyle;rounded=0;orthogonalLoop=1;jettySize=auto;html=1;" edge="1" parent="1" source="6e3ZawmdIFsGpvc9r78N-7" target="6e3ZawmdIFsGpvc9r78N-8">
          <mxGeometry relative="1" as="geometry" />
        </mxCell>
        <mxCell id="6e3ZawmdIFsGpvc9r78N-7" value="添加视频" style="rounded=1;whiteSpace=wrap;html=1;" vertex="1" parent="1">
          <mxGeometry x="244.5" y="656" width="135" height="45" as="geometry" />
        </mxCell>
        <mxCell id="6e3ZawmdIFsGpvc9r78N-21" value="" style="edgeStyle=orthogonalEdgeStyle;rounded=0;orthogonalLoop=1;jettySize=auto;html=1;" edge="1" parent="1" source="6e3ZawmdIFsGpvc9r78N-8" target="6e3ZawmdIFsGpvc9r78N-9">
          <mxGeometry relative="1" as="geometry" />
        </mxCell>
        <mxCell id="6e3ZawmdIFsGpvc9r78N-25" value="否" style="edgeLabel;html=1;align=center;verticalAlign=middle;resizable=0;points=[];" vertex="1" connectable="0" parent="6e3ZawmdIFsGpvc9r78N-21">
          <mxGeometry x="-0.0561" y="2" relative="1" as="geometry">
            <mxPoint as="offset" />
          </mxGeometry>
        </mxCell>
        <mxCell id="6e3ZawmdIFsGpvc9r78N-22" value="" style="edgeStyle=orthogonalEdgeStyle;rounded=0;orthogonalLoop=1;jettySize=auto;html=1;" edge="1" parent="1" source="6e3ZawmdIFsGpvc9r78N-8" target="6e3ZawmdIFsGpvc9r78N-10">
          <mxGeometry relative="1" as="geometry" />
        </mxCell>
        <mxCell id="6e3ZawmdIFsGpvc9r78N-26" value="是" style="edgeLabel;html=1;align=center;verticalAlign=middle;resizable=0;points=[];" vertex="1" connectable="0" parent="6e3ZawmdIFsGpvc9r78N-22">
          <mxGeometry x="-0.3736" y="-1" relative="1" as="geometry">
            <mxPoint as="offset" />
          </mxGeometry>
        </mxCell>
        <mxCell id="6e3ZawmdIFsGpvc9r78N-8" value="是否发布" style="rhombus;whiteSpace=wrap;html=1;" vertex="1" parent="1">
          <mxGeometry x="248" y="740" width="122" height="80" as="geometry" />
        </mxCell>
        <mxCell id="6e3ZawmdIFsGpvc9r78N-24" style="edgeStyle=orthogonalEdgeStyle;rounded=0;orthogonalLoop=1;jettySize=auto;html=1;entryX=0.981;entryY=0.646;entryDx=0;entryDy=0;entryPerimeter=0;" edge="1" parent="1" source="6e3ZawmdIFsGpvc9r78N-9" target="6e3ZawmdIFsGpvc9r78N-11">
          <mxGeometry relative="1" as="geometry">
            <Array as="points">
              <mxPoint x="494" y="1004" />
            </Array>
          </mxGeometry>
        </mxCell>
        <mxCell id="6e3ZawmdIFsGpvc9r78N-9" value="未发布" style="rounded=1;whiteSpace=wrap;html=1;" vertex="1" parent="1">
          <mxGeometry x="433" y="757.5" width="135" height="45" as="geometry" />
        </mxCell>
        <mxCell id="6e3ZawmdIFsGpvc9r78N-23" value="" style="edgeStyle=orthogonalEdgeStyle;rounded=0;orthogonalLoop=1;jettySize=auto;html=1;" edge="1" parent="1" source="6e3ZawmdIFsGpvc9r78N-10" target="6e3ZawmdIFsGpvc9r78N-11">
          <mxGeometry relative="1" as="geometry" />
        </mxCell>
        <mxCell id="6e3ZawmdIFsGpvc9r78N-10" value="发布成功" style="rounded=1;whiteSpace=wrap;html=1;" vertex="1" parent="1">
          <mxGeometry x="241.5" y="874" width="135" height="45" as="geometry" />
        </mxCell>
        <mxCell id="6e3ZawmdIFsGpvc9r78N-11" value="&lt;span style=&quot;color: rgb(0, 0, 0); font-family: Helvetica; font-size: 12px; font-style: normal; font-variant-ligatures: normal; font-variant-caps: normal; font-weight: 400; letter-spacing: normal; orphans: 2; text-align: center; text-indent: 0px; text-transform: none; widows: 2; word-spacing: 0px; -webkit-text-stroke-width: 0px; background-color: rgb(251, 251, 251); text-decoration-thickness: initial; text-decoration-style: initial; text-decoration-color: initial; float: none; display: inline !important;&quot;&gt;结束&lt;/span&gt;" style="ellipse;whiteSpace=wrap;html=1;" vertex="1" parent="1">
          <mxGeometry x="249" y="967" width="120" height="57" as="geometry" />
        </mxCell>
        <mxCell id="6e3ZawmdIFsGpvc9r78N-17" style="edgeStyle=orthogonalEdgeStyle;rounded=0;orthogonalLoop=1;jettySize=auto;html=1;entryX=1;entryY=0.5;entryDx=0;entryDy=0;" edge="1" parent="1" source="6e3ZawmdIFsGpvc9r78N-14" target="6e3ZawmdIFsGpvc9r78N-2">
          <mxGeometry relative="1" as="geometry">
            <Array as="points">
              <mxPoint x="525" y="221" />
            </Array>
          </mxGeometry>
        </mxCell>
        <mxCell id="6e3ZawmdIFsGpvc9r78N-14" value="登陆失败" style="rounded=1;whiteSpace=wrap;html=1;" vertex="1" parent="1">
          <mxGeometry x="460" y="308.5" width="135" height="45" as="geometry" />
        </mxCell>
      </root>
    </mxGraphModel>
  </diagram>
</mxfile>
